<svg width="29" height="33" viewBox="0 0 29 33" fill="none" xmlns="http://www.w3.org/2000/svg">
<path d="M14.0625 0C10.3352 0.00743237 6.76264 1.4914 4.12702 4.12702C1.4914 6.76264 0.00743237 10.3352 0 14.0625C0 17.5641 1.81406 22.05 4.8375 26.0719C5.99063 27.6187 10.0688 32.625 14.0625 32.625C18.0562 32.625 22.1344 27.6187 23.2875 26.0719C26.3109 22.05 28.125 17.5641 28.125 14.0625C28.1176 10.3352 26.6336 6.76264 23.998 4.12702C21.3624 1.4914 17.7898 0.00743237 14.0625 0ZM20.5875 24.0469C18.6469 26.6344 15.7781 29.25 14.0625 29.25C12.3469 29.25 9.47812 26.6344 7.5375 24.0469C4.96406 20.6437 3.375 16.8047 3.375 14.0625C3.375 11.228 4.501 8.50959 6.5053 6.5053C8.50959 4.501 11.228 3.375 14.0625 3.375C16.897 3.375 19.6154 4.501 21.6197 6.5053C23.624 8.50959 24.75 11.228 24.75 14.0625C24.75 16.8047 23.1609 20.6437 20.5875 24.0469ZM10.6875 19.6875C9.34484 19.6875 8.05718 19.1541 7.10777 18.2047C6.15837 17.2553 5.625 15.9677 5.625 14.625V14.0625C5.625 13.6149 5.80279 13.1857 6.11926 12.8693C6.43572 12.5528 6.86495 12.375 7.3125 12.375C8.65516 12.375 9.94282 12.9084 10.8922 13.8578C11.8416 14.8072 12.375 16.0948 12.375 17.4375V18C12.375 18.4476 12.1972 18.8768 11.8807 19.1932C11.5643 19.5097 11.1351 19.6875 10.6875 19.6875ZM22.5 14.0625V14.625C22.5 15.2898 22.3691 15.9481 22.1146 16.5623C21.8602 17.1765 21.4873 17.7346 21.0172 18.2047C20.5471 18.6748 19.989 19.0477 19.3748 19.3021C18.7606 19.5566 18.1023 19.6875 17.4375 19.6875L17.1562 19.6594C16.7626 19.5957 16.4046 19.3935 16.1468 19.0893C15.8889 18.7851 15.7482 18.3988 15.75 18V17.4375C15.75 16.0948 16.2834 14.8072 17.2328 13.8578C18.1822 12.9084 19.4698 12.375 20.8125 12.375C21.2601 12.375 21.6893 12.5528 22.0057 12.8693C22.3222 13.1857 22.5 13.6149 22.5 14.0625ZM17.4375 24.1875C17.4375 24.6351 17.2597 25.0643 16.9432 25.3807C16.6268 25.6972 16.1976 25.875 15.75 25.875H12.375C11.9274 25.875 11.4982 25.6972 11.1818 25.3807C10.8653 25.0643 10.6875 24.6351 10.6875 24.1875C10.6875 23.7399 10.8653 23.3107 11.1818 22.9943C11.4982 22.6778 11.9274 22.5 12.375 22.5H15.75C16.1976 22.5 16.6268 22.6778 16.9432 22.9943C17.2597 23.3107 17.4375 23.7399 17.4375 24.1875Z" fill="#2E2E2E"/>
</svg>
