<svg width="27" height="29" viewBox="0 0 27 29" fill="none" xmlns="http://www.w3.org/2000/svg">
<path d="M27 27C27 27.2984 26.8815 27.5845 26.6705 27.7955C26.4595 28.0065 26.1734 28.125 25.875 28.125H1.125C0.826631 28.125 0.540484 28.0065 0.329505 27.7955C0.118527 27.5845 0 27.2984 0 27C0 26.7016 0.118527 26.4155 0.329505 26.2045C0.540484 25.9935 0.826631 25.875 1.125 25.875H25.875C26.1734 25.875 26.4595 25.9935 26.6705 26.2045C26.8815 26.4155 27 26.7016 27 27ZM16.875 23.625H22.5C23.0967 23.625 23.669 23.3879 24.091 22.966C24.5129 22.544 24.75 21.9717 24.75 21.375V7.875C24.75 7.27826 24.5129 6.70597 24.091 6.28401C23.669 5.86205 23.0967 5.625 22.5 5.625H16.875C16.2783 5.625 15.706 5.86205 15.284 6.28401C14.8621 6.70597 14.625 7.27826 14.625 7.875V21.375C14.625 21.9717 14.8621 22.544 15.284 22.966C15.706 23.3879 16.2783 23.625 16.875 23.625ZM4.5 23.625H10.125C10.7217 23.625 11.294 23.3879 11.716 22.966C12.1379 22.544 12.375 21.9717 12.375 21.375V2.25C12.375 1.65326 12.1379 1.08097 11.716 0.65901C11.294 0.237053 10.7217 0 10.125 0H4.5C3.90326 0 3.33097 0.237053 2.90901 0.65901C2.48705 1.08097 2.25 1.65326 2.25 2.25V21.375C2.25 21.9717 2.48705 22.544 2.90901 22.966C3.33097 23.3879 3.90326 23.625 4.5 23.625Z" fill="#2E2E2E"/>
</svg>
